<?xml version="1.0" standalone="no"?>
<!DOCTYPE svg PUBLIC "-//W3C//DTD SVG 20010904//EN"
 "http://www.w3.org/TR/2001/REC-SVG-20010904/DTD/svg10.dtd">
<svg version="1.0" xmlns="http://www.w3.org/2000/svg"
 width="700.000000pt" height="700.000000pt" viewBox="0 0 700.000000 700.000000"
 preserveAspectRatio="xMidYMid meet">
<metadata>
Created by potrace 1.11, written by Peter Selinger 2001-2013
</metadata>
<g transform="translate(0.000000,700.000000) scale(0.100000,-0.100000)"
fill="#000000" stroke="none">
<path d="M2750 6113 c-115 -39 -238 -86 -316 -123 -47 -22 -90 -40 -94 -40
-10 0 -25 -37 -100 -245 -67 -185 -88 -242 -101 -270 -5 -11 -22 -58 -38 -105
-71 -207 -144 -399 -150 -396 -3 2 -6 -6 -7 -17 -1 -21 -15 -62 -95 -277 -17
-47 -40 -110 -51 -140 -10 -30 -26 -69 -34 -87 -7 -17 -14 -34 -14 -38 0 -4
-19 -58 -41 -119 -39 -103 -63 -170 -134 -366 -15 -41 -31 -84 -35 -95 -5 -11
-21 -54 -36 -95 -15 -41 -31 -77 -36 -78 -4 -2 -6 -7 -3 -11 2 -5 -5 -32 -16
-62 -11 -30 -26 -70 -33 -89 -7 -19 -27 -75 -45 -125 -17 -49 -38 -103 -45
-120 -36 -78 -41 -113 -21 -168 10 -29 24 -61 32 -72 7 -11 13 -25 13 -31 0
-7 18 -43 40 -80 22 -38 38 -75 35 -82 -3 -7 -1 -11 4 -8 8 6 81 -96 81 -113
0 -5 4 -11 8 -13 4 -1 30 -32 57 -67 l49 -65 14 35 c8 19 17 36 21 39 3 3 6
11 7 18 3 39 5 43 16 36 7 -4 8 -3 4 5 -6 10 18 88 54 176 4 11 13 34 18 50
16 46 60 166 73 200 15 35 14 33 23 67 5 16 12 25 17 22 5 -3 6 1 4 9 -3 7 10
55 30 106 19 51 35 99 35 106 0 17 25 26 38 13 6 -6 12 -6 16 1 5 8 13 8 26 1
10 -6 21 -6 24 -2 6 10 157 9 173 -1 6 -4 14 -3 17 2 7 10 25 9 42 -2 6 -3 14
-3 18 0 10 10 457 10 463 1 2 -5 10 -5 16 -1 19 11 47 11 47 -1 0 -7 3 -8 8
-1 9 13 101 13 121 1 9 -6 12 -5 8 0 -4 8 254 12 295 5 10 -2 28 -73 21 -84
-3 -6 -1 -7 5 -3 11 6 15 -5 11 -30 0 -4 5 -10 11 -14 7 -4 13 -19 13 -34 1
-14 4 -26 7 -26 4 0 12 -17 19 -37 31 -89 94 -262 113 -306 10 -27 17 -51 14
-55 -3 -3 -1 -11 6 -19 17 -21 47 -116 41 -128 -4 -5 -2 -7 2 -3 10 9 48 -86
49 -124 1 -14 4 -24 8 -22 3 2 11 -8 16 -24 6 -15 24 -65 41 -112 17 -46 29
-90 26 -98 -2 -7 -1 -11 3 -8 5 3 25 -43 46 -102 21 -59 44 -120 51 -137 31
-72 47 -124 40 -136 -5 -7 -4 -10 2 -6 6 4 16 -12 23 -38 7 -25 17 -48 21 -51
5 -3 9 -11 9 -18 0 -8 7 -30 15 -49 17 -40 10 -40 160 6 39 11 72 22 75 22 3
1 12 4 20 8 58 22 144 46 151 41 5 -3 9 -1 9 4 0 5 20 15 45 21 25 6 45 13 45
16 0 6 -40 116 -51 140 -9 21 -75 201 -89 245 -5 14 -22 62 -39 108 -16 45
-27 82 -23 82 4 0 1 4 -7 9 -8 5 -14 22 -15 39 0 17 -3 29 -6 27 -10 -6 -62
144 -54 157 4 6 3 8 -3 5 -5 -3 -19 21 -30 54 l-21 61 21 -6 c12 -3 35 -6 51
-6 26 0 27 -2 15 -17 -13 -16 -12 -17 4 -4 21 17 109 23 100 7 -3 -6 0 -5 8 2
7 6 25 12 39 12 15 0 62 9 106 21 43 11 84 21 89 23 6 1 16 5 23 9 6 5 17 5
24 1 7 -5 8 -3 3 6 -6 10 -4 12 11 6 10 -4 15 -4 12 0 -8 7 79 54 100 54 7 0
11 4 8 9 -4 5 7 12 24 16 16 4 30 11 30 16 0 5 5 9 10 9 6 0 53 27 106 60 52
33 97 60 99 60 4 0 20 -91 17 -102 -1 -4 5 -25 12 -46 8 -22 12 -42 10 -45 -3
-2 6 -15 20 -28 19 -19 33 -23 67 -20 40 3 42 2 29 -16 -14 -17 -14 -17 5 -2
17 14 47 17 188 17 93 0 172 3 175 7 9 8 11 85 2 85 -3 0 -11 21 -17 48 -6 26
-18 72 -27 102 -19 68 -27 200 -14 218 6 6 6 12 1 12 -12 0 -15 48 -3 55 6 4
7 12 3 18 -11 16 -11 297 -1 303 5 3 5 11 1 17 -13 21 -13 178 0 170 9 -5 9
-3 1 8 -7 9 -10 95 -10 246 1 127 -1 229 -4 227 -2 -3 -10 22 -16 55 -7 33
-20 77 -30 98 -33 71 -129 208 -189 269 -111 112 -300 196 -515 230 -50 7
-282 7 -319 0 -13 -3 -49 -8 -80 -11 -31 -4 -70 -11 -88 -16 -17 -6 -43 -12
-57 -15 -36 -6 -230 -77 -286 -103 -44 -21 -131 -68 -136 -74 -2 -2 10 -41 27
-88 16 -46 41 -118 55 -159 43 -127 43 -128 69 -126 13 0 23 5 22 9 -3 14 247
136 310 151 143 36 344 51 453 34 164 -26 306 -168 313 -312 1 -25 4 -46 7
-46 3 0 6 -27 7 -60 1 -41 -2 -60 -10 -61 -7 0 -203 -2 -437 -3 -234 -2 -432
-6 -440 -9 -8 -3 -33 -8 -55 -11 -67 -7 -124 -26 -201 -66 -72 -38 -88 -49
-123 -83 -17 -16 -19 -17 -25 -2 -3 9 -3 22 1 27 3 6 2 8 -3 5 -6 -3 -16 15
-24 41 -7 26 -17 54 -21 62 -19 37 -37 98 -32 104 4 3 2 6 -4 6 -6 0 -13 10
-16 23 -2 12 -16 53 -31 91 -14 38 -23 73 -20 78 3 4 1 8 -3 8 -5 0 -17 24
-27 53 -10 28 -22 61 -27 72 -27 62 -50 138 -45 151 3 8 2 13 -3 10 -5 -3 -16
16 -26 42 -9 26 -25 70 -35 97 -79 213 -102 276 -104 287 -1 7 -10 31 -20 53
-9 21 -18 46 -19 55 -2 8 -6 21 -11 28 -4 7 -11 25 -16 40 -4 15 -38 108 -74
207 -37 99 -64 185 -61 193 2 7 1 11 -3 8 -5 -3 -14 12 -21 32 -7 20 -16 46
-21 57 -5 11 -25 65 -45 120 -20 55 -42 114 -49 130 -7 17 -21 49 -31 73 -20
47 -21 47 -85 25z m-106 -1028 c2 -5 8 -23 15 -39 6 -16 13 -36 15 -45 2 -9
10 -33 20 -53 9 -21 16 -41 16 -46 0 -5 9 -31 19 -58 47 -119 62 -160 65 -179
3 -11 12 -37 21 -58 8 -21 13 -43 9 -49 -4 -6 -3 -8 3 -5 12 8 47 -99 37 -115
-4 -6 -3 -8 4 -4 13 8 57 -119 46 -135 -4 -8 -3 -9 4 -5 11 6 38 -63 35 -91 0
-7 3 -13 7 -13 4 0 13 -21 20 -47 8 -27 16 -50 19 -53 7 -6 56 -151 56 -165 0
-5 3 -12 6 -15 4 -3 9 -15 13 -27 l7 -22 -471 0 c-258 0 -470 1 -470 3 0 2 22
63 49 137 28 74 53 146 56 162 4 15 10 27 14 27 4 0 7 8 8 18 3 36 57 171 66
165 6 -3 7 -1 3 5 -4 7 9 58 29 114 21 57 50 139 66 183 15 44 32 80 38 80 5
0 13 4 18 8 4 5 3 7 -4 5 -13 -3 -15 7 -6 39 3 13 10 20 16 16 5 -3 7 -1 4 4
-7 12 63 224 72 218 3 -1 7 11 7 28 1 17 6 33 13 35 6 2 9 7 6 12 -3 5 0 20 7
35 l12 26 13 -43 c8 -24 15 -47 17 -53z m1914 -1407 c13 -11 14 -11 8 0 -6 10
29 12 172 11 l179 -1 0 -105 c0 -81 -3 -103 -13 -99 -7 3 -14 2 -16 -2 -8 -17
-120 -82 -131 -76 -7 4 -9 4 -5 -1 27 -29 -366 -212 -404 -189 -6 4 -8 3 -5
-3 11 -18 -61 -31 -155 -28 -199 5 -282 69 -287 219 -2 70 20 151 50 179 11
10 26 29 35 42 9 13 39 33 67 44 45 16 81 19 271 20 162 1 223 -2 234 -11z"/>
<path d="M2315 4240 c-3 -5 -1 -10 4 -10 6 0 11 5 11 10 0 6 -2 10 -4 10 -3 0
-8 -4 -11 -10z"/>
<path d="M2395 4169 c-4 -6 -5 -12 -2 -15 2 -3 7 2 10 11 7 17 1 20 -8 4z"/>
<path d="M2353 3995 c0 -8 4 -12 9 -9 5 3 6 10 3 15 -9 13 -12 11 -12 -6z"/>
<path d="M4516 3518 c3 -5 10 -6 15 -3 13 9 11 12 -6 12 -8 0 -12 -4 -9 -9z"/>
<path d="M4275 3451 c-3 -5 -2 -12 3 -15 5 -3 9 1 9 9 0 17 -3 19 -12 6z"/>
<path d="M4394 3320 c0 -13 4 -16 10 -10 7 7 7 13 0 20 -6 6 -10 3 -10 -10z"/>
<path d="M3669 4363 c-13 -16 -12 -17 4 -4 16 13 21 21 13 21 -2 0 -10 -8 -17
-17z"/>
<path d="M3996 4302 c-3 -5 1 -9 9 -9 8 0 12 4 9 9 -3 4 -7 8 -9 8 -2 0 -6 -4
-9 -8z"/>
<path d="M4275 4291 c-3 -5 -2 -12 3 -15 5 -3 9 1 9 9 0 17 -3 19 -12 6z"/>
<path d="M1639 4273 c-13 -16 -12 -17 4 -4 9 7 17 15 17 17 0 8 -8 3 -21 -13z"/>
<path d="M2310 3356 c7 -7 13 -7 20 0 6 6 3 10 -10 10 -13 0 -16 -4 -10 -10z"/>
<path d="M2790 3361 c0 -6 4 -13 10 -16 6 -3 7 1 4 9 -7 18 -14 21 -14 7z"/>
<path d="M2515 3320 c-3 -5 -1 -10 4 -10 6 0 11 5 11 10 0 6 -2 10 -4 10 -3 0
-8 -4 -11 -10z"/>
<path d="M3105 3280 c-3 -6 1 -7 9 -4 18 7 21 14 7 14 -6 0 -13 -4 -16 -10z"/>
<path d="M2510 3240 c0 -5 5 -10 10 -10 6 0 10 5 10 10 0 6 -4 10 -10 10 -5 0
-10 -4 -10 -10z"/>
<path d="M2110 3040 c0 -5 5 -10 11 -10 5 0 7 5 4 10 -3 6 -8 10 -11 10 -2 0
-4 -4 -4 -10z"/>
<path d="M4795 2811 c-3 -5 -2 -12 3 -15 5 -3 9 1 9 9 0 17 -3 19 -12 6z"/>
<path d="M4433 2715 c0 -8 4 -12 9 -9 5 3 6 10 3 15 -9 13 -12 11 -12 -6z"/>
<path d="M4596 2718 c3 -5 10 -6 15 -3 13 9 11 12 -6 12 -8 0 -12 -4 -9 -9z"/>
<path d="M3235 2400 c-3 -5 -1 -10 4 -10 6 0 11 5 11 10 0 6 -2 10 -4 10 -3 0
-8 -4 -11 -10z"/>
<path d="M4316 2278 c3 -5 10 -6 15 -3 13 9 11 12 -6 12 -8 0 -12 -4 -9 -9z"/>
<path d="M3595 2140 c3 -5 8 -10 11 -10 2 0 4 5 4 10 0 6 -5 10 -11 10 -5 0
-7 -4 -4 -10z"/>
</g>
</svg>
