<?xml version="1.0" encoding="utf-8"?>
<!-- Generator: Adobe Illustrator 21.0.0, SVG Export Plug-In . SVG Version: 6.00 Build 0)  -->
<svg version="1.1" id="Capa_1" xmlns="http://www.w3.org/2000/svg" xmlns:xlink="http://www.w3.org/1999/xlink" x="0px" y="0px" width="30" height="46"
	 viewBox="0 0 30 46" style="enable-background:new 0 0 30 46;" xml:space="preserve">
<style type="text/css">
	.st0{fill:#006400;}
</style>
<g>
	<path class="st0" d="M15,8c-5.2,0-9.4,4.2-9.4,9.4c0,1.5,0.3,2.8,0.9,4.1C6.6,21.5,15,38,15,38l8.4-16.4c0.7-1.3,1-2.7,1-4.3
		C24.4,12.2,20.2,8,15,8z M15,23c-3.1,0-5.6-2.5-5.6-5.6s2.5-5.6,5.6-5.6c3.1,0,5.6,2.5,5.6,5.6S18.1,23,15,23z"/>
</g>
</svg>
